<?xml version="1.0" standalone="no"?>
<!DOCTYPE svg PUBLIC "-//W3C//DTD SVG 20010904//EN"
 "http://www.w3.org/TR/2001/REC-SVG-20010904/DTD/svg10.dtd">
<svg version="1.0" xmlns="http://www.w3.org/2000/svg"
 width="512.000000pt" height="512.000000pt" viewBox="0 0 512.000000 512.000000"
 preserveAspectRatio="xMidYMid meet">
<metadata>
Created by potrace 1.14, written by Peter Selinger 2001-2017
</metadata>
<g transform="translate(0.000000,512.000000) scale(0.100000,-0.100000)"
fill="#000000" stroke="none">
<path d="M2560 4466 l0 -655 583 -4 582 -3 101 -27 c459 -119 780 -460 881
-937 13 -63 18 -129 18 -255 0 -126 -5 -192 -18 -255 -101 -477 -422 -818
-881 -937 l-101 -27 -582 -3 -583 -4 0 -680 0 -679 1280 0 1280 0 0 2560 0
2560 -1280 0 -1280 0 0 -654z"/>
<path d="M1468 2938 l-3 -873 -29 -58 c-49 -101 -140 -147 -291 -147 -144 0
-230 41 -302 144 -21 30 -41 55 -46 56 -8 0 -430 -240 -461 -263 -19 -14 -19
-15 7 -59 83 -143 194 -249 337 -323 235 -121 568 -138 831 -42 115 41 199 95
290 186 130 129 195 274 219 481 6 49 10 444 10 928 l0 842 -280 0 -279 0 -3
-872z"/>
<path d="M3120 2585 l0 -685 244 0 c291 0 362 10 485 71 155 77 268 221 318
409 25 91 25 319 0 410 -50 188 -163 332 -318 409 -123 61 -194 71 -485 71
l-244 0 0 -685z"/>
</g>
</svg>
